<svg height="512pt" viewBox="0 0 512 512" width="512pt" xmlns="http://www.w3.org/2000/svg"><path d="m256 0c-140.699219 0-256 115.300781-256 256s115.300781 256 256 256 256-115.300781 256-256-115.300781-256-256-256zm0 0" fill="#64e1dc"/><path d="m512 256c0 140.699219-115.300781 256-256 256v-512c140.699219 0 256 115.300781 256 256zm0 0" fill="#00c8c8"/><path d="m256 61c-107.402344 0-195 87.597656-195 195 0 107.398438 87.597656 195 195 195s195-87.601562 195-195c0-107.402344-87.597656-195-195-195zm0 0" fill="#e0f4ff"/><path d="m451 256c0 107.398438-87.597656 195-195 195v-390c107.402344 0 195 87.597656 195 195zm0 0" fill="#bbdcff"/><g fill="#64e1dc"><path d="m241 121h30v30h-30zm0 0"/><path d="m241 361h30v30h-30zm0 0"/><path d="m171.140625 149.929688 21.210937 21.210937-21.210937 21.210937-21.210937-21.210937zm0 0"/></g><path d="m340.859375 319.644531 21.210937 21.210938-21.210937 21.210937-21.210937-21.210937zm0 0" fill="#00c8c8"/><path d="m121 241h30v30h-30zm0 0" fill="#64e1dc"/><path d="m361 241h30v30h-30zm0 0" fill="#00c8c8"/><path d="m171.144531 319.644531 21.207031 21.210938-21.207031 21.210937-21.210937-21.210937zm0 0" fill="#64e1dc"/><path d="m340.855469 149.925781 21.210937 21.210938-21.210937 21.210937-21.207031-21.210937zm0 0" fill="#00c8c8"/><path d="m309.101562 287.800781-21.300781 21.296875-46.800781-46.796875v-81.300781h30v68.699219zm0 0" fill="#537983"/><path d="m256 121h15v30h-15zm0 0" fill="#00c8c8"/><path d="m256 361h15v30h-15zm0 0" fill="#00c8c8"/><path d="m309.101562 287.800781-21.300781 21.296875-31.800781-31.796875v-96.300781h15v68.699219zm0 0" fill="#3e5959"/></svg>